<svg width="106" height="104" viewBox="0 0 106 104" fill="none" xmlns="http://www.w3.org/2000/svg">
<path d="M71.8798 3.58225L25.0268 3.24572L8 29.4423V32.4405L47.8748 41.0207L68.6257 6.59434L91.2678 33.4529L97 33.4L71.8798 3.58225Z" fill="black"/>
<path d="M49.3071 43.4682L10.1555 34.8379L10.1694 68.7024L33.0618 78.498V56.8154L44.4761 60.2085V83.3819L49.9273 85.7181V85.7543L88.9538 69.0584V36.2731V35.5666V33.909L68.8009 10.0403L49.3071 43.4682ZM25.7917 65.5708L16.0907 62.1971V54.0647L25.7917 57.0518V65.5708ZM26.3062 52.2819L16.5607 49.5007V41.3488L26.3062 43.7435V52.2819ZM44.4789 57.4662L33.0646 54.2093V45.4067L44.4789 48.2102V57.4662ZM69.0178 67.7596L57.2893 71.8647V62.3556L69.0178 58.7344V67.7596ZM73.5819 43.8631L83.7557 41.36V49.776L73.5819 52.7047V43.8631ZM73.4957 57.3577L83.6806 54.2121V62.631L73.4957 66.1937V57.3577ZM69.118 53.9841L57.3922 57.3522V47.8514L69.118 44.9645V53.9841Z" fill="black"/>
<path d="M1.17 12H0.975L2.28 1.5H2.775L5.925 11.205L9.06 1.5H9.555L10.86 12H9.615L8.58 3.6L5.865 12H4.92L2.175 3.705L1.17 12ZM13.9001 14.685C13.5801 15.395 13.1851 15.75 12.7151 15.75C12.5051 15.75 12.2601 15.715 11.9801 15.645V15.525C12.2101 15.585 12.4151 15.615 12.5951 15.615C13.1051 15.615 13.4951 15.305 13.7651 14.685L15.0251 12H15.0101L12.2201 4.5H13.2701L15.5951 10.755L17.8901 6C18.0101 5.79 18.0701 5.54 18.0701 5.25C18.0701 4.96 17.9901 4.74 17.8301 4.59L17.9201 4.5C17.9601 4.52 18.0101 4.58 18.0701 4.68C18.1401 4.78 18.1801 4.87 18.1901 4.95C18.2101 5.03 18.2201 5.105 18.2201 5.175C18.2201 5.445 18.1601 5.72 18.0401 6L15.1601 12L13.9001 14.685Z" fill="#060545"/>
<path d="M43.4239 103.825L43.2437 103.899L39.2368 94.1938L39.7082 93.9992L49.1795 100.589L45.476 91.618L45.6563 91.5436L49.6631 101.249L48.651 101.667L40.104 95.7832L43.4239 103.825ZM50.6619 96.877C51.1351 98.0232 51.6811 98.7823 52.2999 99.1543C52.9279 99.5225 53.5701 99.5711 54.2264 99.3002C55.1507 98.9186 55.9161 98.4403 56.5226 97.8653L56.6043 97.9452C55.9831 98.537 55.2057 99.0257 54.2722 99.4111C53.3478 99.7927 52.48 99.8264 51.6687 99.5122C50.8575 99.198 50.2133 98.4632 49.7363 97.3078C49.2593 96.1524 49.1942 95.1299 49.5409 94.2403C49.8877 93.3506 50.5324 92.7112 51.4752 92.3219C52.2332 92.009 52.9645 91.9722 53.6691 92.2114C54.3737 92.4506 54.9092 93.0139 55.2755 93.9012C55.2946 93.9475 55.3137 93.9937 55.3327 94.0399L50.383 96.0834C50.4583 96.3444 50.5513 96.6089 50.6619 96.877ZM54.3441 94.3182C53.9686 93.4347 53.5266 92.849 53.0183 92.5612C52.51 92.2734 51.9924 92.2382 51.4656 92.4557C50.9387 92.6733 50.5627 93.099 50.3376 93.7328C50.1217 94.3629 50.1262 95.1076 50.3511 95.9668L54.3441 94.3182ZM64.6245 87.0556L64.6734 86.938C64.718 86.9413 64.7871 86.9776 64.8807 87.0472C64.9836 87.1129 65.0549 87.1808 65.0946 87.251C65.1437 87.3173 65.1815 87.3828 65.2082 87.4475C65.3113 87.697 65.3608 87.9741 65.3567 88.2787L65.1229 94.8665L64.9843 94.9237L60.7725 90.3823L60.5475 96.7554L60.4088 96.8127L54.9679 90.9449L55.9385 90.5442L60.4296 95.4085L60.6345 90.2445L59.5434 89.056L60.5139 88.6553L65.005 93.5195L65.218 88.336C65.2488 88.0961 65.2089 87.8421 65.0982 87.574C64.9875 87.306 64.8296 87.1332 64.6245 87.0556ZM74.2858 91.0836L73.135 91.5587L69.1281 81.8533L70.2789 81.3782L72.122 85.8427L76.6281 83.9824L74.785 79.5179L75.9358 79.0428L79.9426 88.7482L78.7918 89.2233L76.6854 84.121L72.1793 85.9813L74.2858 91.0836ZM84.4968 86.9329C83.5263 87.3336 82.6215 87.3826 81.7825 87.0798C80.9435 86.7771 80.2855 86.048 79.8085 84.8926C79.3315 83.7372 79.2756 82.7109 79.6408 81.8136C80.0153 80.9125 80.6878 80.2616 81.6583 79.8609C82.6381 79.4564 83.5475 79.4055 84.3865 79.7083C85.2256 80.011 85.8836 80.7401 86.3606 81.8955C86.8376 83.0509 86.8888 84.0792 86.5144 84.9802C86.1491 85.8775 85.4766 86.5284 84.4968 86.9329ZM81.7319 79.9604C81.0294 80.2504 80.5768 80.8051 80.3741 81.6244C80.1676 82.4345 80.2953 83.3988 80.757 84.5172C81.2149 85.6264 81.7672 86.3613 82.4137 86.7219C83.0602 87.0825 83.7347 87.1177 84.4372 86.8277C85.1397 86.5377 85.5942 85.9876 85.8006 85.1775C86.0033 84.3582 85.8757 83.3939 85.4178 82.2847C84.956 81.1663 84.4019 80.4268 83.7554 80.0662C83.1088 79.7057 82.4343 79.6704 81.7319 79.9604ZM94.8323 76.3532C94.5995 75.7894 94.3615 75.4225 94.1182 75.2524C93.8749 75.0824 93.5453 75.0833 93.1293 75.255C92.5747 75.4839 92.1756 75.9192 91.932 76.5607C91.6976 77.1984 91.6567 77.7021 91.8094 78.0719L93.8471 83.0077L92.8766 83.4084L90.6728 78.0705C90.4401 77.5066 90.202 77.1397 89.9587 76.9697C89.7154 76.7996 89.3535 76.8138 88.8728 77.0123C88.3922 77.2107 88.0262 77.6214 87.7749 78.2445C87.5329 78.8637 87.4717 79.3704 87.5911 79.7647L89.6461 84.7421L88.6755 85.1428L85.8135 78.2104L86.7841 77.8097L87.4309 79.3764C87.4147 78.9179 87.5347 78.4356 87.791 77.9295C88.0472 77.4234 88.4203 77.0693 88.9102 76.867C89.4001 76.6648 89.8074 76.5507 90.1321 76.5248C90.4622 76.4859 90.7255 76.5341 90.922 76.6693C91.1185 76.8046 91.2592 76.9358 91.3442 77.063C91.4292 77.1902 91.5232 77.3786 91.6262 77.6282C91.61 77.1697 91.7273 76.6939 91.9782 76.2009C92.2252 75.6986 92.5705 75.3559 93.0142 75.1727C93.4579 74.9895 93.829 74.8796 94.1276 74.8428C94.4262 74.8061 94.6593 74.8073 94.8268 74.8463C95.0036 74.8815 95.1606 74.9735 95.2979 75.1224C95.4443 75.2675 95.545 75.3936 95.6001 75.5007C95.6551 75.6078 95.7246 75.7631 95.8086 75.9664L97.6002 80.3061C97.7109 80.5742 97.8476 80.7612 98.0103 80.8671C98.1785 80.9599 98.3199 80.9881 98.4346 80.9515L98.5986 80.9163L99.0284 80.7389L99.0742 80.8498L98.2285 81.1989C97.8495 81.3554 97.524 81.3924 97.2519 81.31C96.9891 81.2237 96.8188 81.0993 96.7408 80.9368L96.6297 80.7068L94.8323 76.3532ZM99.0401 76.9042C99.5133 78.0504 100.059 78.8095 100.678 79.1815C101.306 79.5497 101.948 79.5983 102.605 79.3274C103.529 78.9458 104.294 78.4675 104.901 77.8926L104.982 77.9724C104.361 78.5643 103.584 79.0529 102.65 79.4383C101.726 79.8199 100.858 79.8536 100.047 79.5394C99.2356 79.2252 98.5914 78.4905 98.1144 77.335C97.6374 76.1796 97.5723 75.1571 97.9191 74.2675C98.2658 73.3778 98.9106 72.7384 99.8534 72.3491C100.611 72.0362 101.343 71.9994 102.047 72.2386C102.752 72.4778 103.287 73.0411 103.654 73.9285C103.673 73.9747 103.692 74.0209 103.711 74.0671L98.7611 76.1106C98.8364 76.3716 98.9294 76.6362 99.0401 76.9042ZM102.722 74.3454C102.347 73.4619 101.905 72.8762 101.396 72.5884C100.888 72.3006 100.371 72.2654 99.8437 72.483C99.3169 72.7005 98.9409 73.1262 98.7157 73.7601C98.4998 74.3901 98.5043 75.1348 98.7292 75.994L102.722 74.3454Z" fill="#060545"/>
</svg>
